<?xml version="1.0" encoding="utf-8"?>
<!-- Generator: Adobe Illustrator 26.5.0, SVG Export Plug-In . SVG Version: 6.00 Build 0)  -->
<svg version="1.1" id="Layer_1" xmlns="http://www.w3.org/2000/svg" xmlns:xlink="http://www.w3.org/1999/xlink" x="0px" y="0px"
	 viewBox="0 0 150 150" style="enable-background:new 0 0 150 150;" xml:space="preserve">
<style type="text/css">
	.st0{fill-rule:evenodd;clip-rule:evenodd;fill:#4B2272;stroke:#FFFFFF;stroke-width:2;stroke-miterlimit:10;}
	.st1{fill:#FFFFFF;}
</style>
<g>
	<path class="st0" d="M75,139L36.9,94.3L34,90.6l-2.5-4.2L29.3,82l-1.9-4.5l-1.2-4.7L25.4,68l-0.5-4.8l0.2-4.8l0.6-5l0.9-4.7
		l1.6-4.7l1.9-4.5l2.3-4.2l2.8-4l3.1-3.7l3.4-3.4l3.9-2.9l4-2.6l4.3-2.3l4.3-1.9l4.7-1.4l4.8-0.9l4.8-0.5h5l4.8,0.5l4.7,0.9l4.7,1.4
		l4.5,1.9l4.3,2.3l4,2.6l3.7,2.9l3.6,3.4l3.1,3.7l2.8,4l2.3,4.2l1.9,4.5l1.6,4.7l0.9,4.7l0.6,5l0.2,4.8l-0.5,4.8l-0.8,4.8l-1.4,4.7
		l-1.7,4.5l-2.2,4.3l-2.5,4.2l-3.1,3.7L75,139"/>
</g>
<g>
	<path class="st1" d="M52,70.3c0-1.1,0.9-2,2-2h43.8c1.1,0,2,0.9,2,2v7.9c0,1.1-0.9,2-2,2H54c-1.1,0-2-0.9-2-2V70.3z M56,72.3v4
		h39.8v-4H56z M60,52.4h4v15.9h-4V52.4z M73.9,52.4h4v15.9h-4V52.4z M87.8,52.4h4v15.9h-4V52.4z M74.1,33.4c1-0.5,2.6-0.5,3.6,0
		L98,43.5c1,0.5,1.8,1.8,1.8,2.9v4c0,1.1-0.9,2-2,2H54c-1.1,0-2-0.9-2-2v-4c0-1.1,0.8-2.4,1.8-2.9L74.1,33.4z M56,46.9v1.5h39.8
		v-1.5l-19.9-10C76,37,76,37,75.9,37s-0.1,0,0,0C75.9,36.9,56,46.9,56,46.9L56,46.9z"/>
</g>
</svg>
