<?xml version="1.0" encoding="utf-8"?>
<!-- Generator: Adobe Illustrator 27.7.0, SVG Export Plug-In . SVG Version: 6.00 Build 0)  -->
<svg version="1.1" id="Layer_1" xmlns="http://www.w3.org/2000/svg" xmlns:xlink="http://www.w3.org/1999/xlink" x="0px" y="0px"
	 viewBox="0 0 27 41" style="enable-background:new 0 0 27 41;" xml:space="preserve">
<style type="text/css">
	.st0{opacity:4.000000e-02;enable-background:new    ;}
	.st1{fill:#3FB1CE;}
	.st2{opacity:0.25;}
	.st3{opacity:0.25;enable-background:new    ;}
	.st4{fill:#FFFFFF;}
	.st5{fill:#2F859B;}
</style>
<g>
	<g transform="translate(3.0, 29.0)">
		<ellipse class="st0" cx="10.5" cy="5.8" rx="10.5" ry="5.3"/>
		<ellipse class="st0" cx="10.5" cy="5.8" rx="10.5" ry="5.3"/>
		<ellipse class="st0" cx="10.5" cy="5.8" rx="9.5" ry="4.8"/>
		<ellipse class="st0" cx="10.5" cy="5.8" rx="8.5" ry="4.3"/>
		<ellipse class="st0" cx="10.5" cy="5.8" rx="7.5" ry="3.8"/>
		<ellipse class="st0" cx="10.5" cy="5.8" rx="6.5" ry="3.3"/>
		<ellipse class="st0" cx="10.5" cy="5.8" rx="5.5" ry="2.9"/>
		<ellipse class="st0" cx="10.5" cy="5.8" rx="4.5" ry="2.4"/>
	</g>
	<g>
		<path class="st1" d="M27,13.5c0,5.6-6.7,13.5-12.2,21c-0.7,1-1.8,1-2.5,0C6.7,27,0,19.2,0,13.5C0,6,6,0,13.5,0S27,6,27,13.5z"/>
	</g>
	<g class="st2">
		<path d="M13.5,0C6,0,0,6,0,13.5c0,5.7,6.7,13.5,12.2,21c0.8,1,1.8,1,2.5,0C20.3,27,27,19.1,27,13.5C27,6,21,0,13.5,0z M13.5,1
			C20.4,1,26,6.6,26,13.5c0,2.4-1.5,5.7-3.8,9.2s-5.5,7.4-8.3,11.2c-0.2,0.3-0.3,0.4-0.4,0.5c-0.1-0.1-0.2-0.3-0.4-0.5
			c-2.8-3.8-5.6-7.6-8-11.1S1,16,1,13.5C1,6.6,6.6,1,13.5,1z"/>
	</g>
	<g transform="translate(6.0, 7.0)">
	</g>
	<g transform="translate(8.0, 8.0)">
		<circle class="st3" cx="5.5" cy="5.5" r="9.5"/>
		<circle class="st4" cx="5.5" cy="5.5" r="9.5"/>
	</g>
	<path class="st5" d="M18.9,18.1c-0.4-2-1.8-3.7-3.6-4.4c-0.5,0.3-1.2,0.5-1.8,0.5c-0.7,0-1.3-0.2-1.8-0.5c-1.8,0.7-3.2,2.3-3.6,4.4
		c-0.1,0.3-0.3,1.1,0.7,1.1h9.4C19.2,19.2,19,18.4,18.9,18.1z M13.5,13.4c1.6,0,2.9-1.3,2.9-2.9c0-1.6-1.3-2.9-2.9-2.9
		c-1.6,0-2.9,1.3-2.9,2.9C10.6,12.1,11.9,13.4,13.5,13.4z"/>
</g>
</svg>
