<?xml version="1.0" encoding="utf-8"?>
<!-- Generator: Adobe Illustrator 27.7.0, SVG Export Plug-In . SVG Version: 6.00 Build 0)  -->
<svg version="1.1" id="Layer_1" xmlns="http://www.w3.org/2000/svg" xmlns:xlink="http://www.w3.org/1999/xlink" x="0px" y="0px"
	 viewBox="0 0 27 41" style="enable-background:new 0 0 27 41;" xml:space="preserve">
<style type="text/css">
	.st0{opacity:4.000000e-02;enable-background:new    ;}
	.st1{fill:#10CE66;}
	.st2{fill:#0C9B4C;}
	.st3{opacity:0.25;enable-background:new    ;}
	.st4{fill:#FFFFFF;}
	.st5{fill:none;stroke:#0C9B4C;stroke-width:1.25;stroke-miterlimit:10;}
</style>
<g transform="translate(3.0, 29.0)">
	<ellipse class="st0" cx="10.5" cy="5.8" rx="10.5" ry="5.3"/>
	<ellipse class="st0" cx="10.5" cy="5.8" rx="10.5" ry="5.3"/>
	<ellipse class="st0" cx="10.5" cy="5.8" rx="9.5" ry="4.8"/>
	<ellipse class="st0" cx="10.5" cy="5.8" rx="8.5" ry="4.3"/>
	<ellipse class="st0" cx="10.5" cy="5.8" rx="7.5" ry="3.8"/>
	<ellipse class="st0" cx="10.5" cy="5.8" rx="6.5" ry="3.3"/>
	<ellipse class="st0" cx="10.5" cy="5.8" rx="5.5" ry="2.9"/>
	<ellipse class="st0" cx="10.5" cy="5.8" rx="4.5" ry="2.4"/>
</g>
<g>
	<path class="st1" d="M27,13.5c0,5.6-6.7,13.5-12.2,21c-0.7,1-1.8,1-2.5,0C6.7,27,0,19.2,0,13.5C0,6,6,0,13.5,0S27,6,27,13.5z"/>
</g>
<path class="st2" d="M13.5,0C6,0,0,6,0,13.5c0,5.7,6.7,13.5,12.2,21c0.8,1,1.8,1,2.5,0C20.3,27,27,19.1,27,13.5C27,6,21,0,13.5,0z
	 M13.5,1C20.4,1,26,6.6,26,13.5c0,2.4-1.5,5.7-3.8,9.2s-5.5,7.4-8.3,11.2c-0.2,0.3-0.3,0.4-0.4,0.5c-0.1-0.1-0.2-0.3-0.4-0.5
	c-2.8-3.8-5.6-7.6-8-11.1S1,16,1,13.5C1,6.6,6.6,1,13.5,1z"/>
<g transform="translate(6.0, 7.0)">
</g>
<g transform="translate(8.0, 8.0)">
	<circle class="st3" cx="5.5" cy="5.5" r="9.5"/>
	<circle class="st4" cx="5.5" cy="5.5" r="9.5"/>
</g>
<g>
	<g>
		<path class="st5" d="M15.1,11.1c-0.5,0-1,0.1-1.5,0.1c-2.2,0-4.2-0.4-5.8-1.6"/>
		<path class="st5" d="M19.4,9.6c-0.6,0.5-1.2,0.8-1.9,1"/>
		<path class="st5" d="M9.8,16c-0.7,0.2-1.4,0.6-2,1"/>
		<path class="st5" d="M19.4,17c-1.5-1.2-3.6-1.6-5.8-1.6c-0.5,0-0.9,0-1.4,0.1"/>
		<ellipse transform="matrix(0.3162 -0.9487 0.9487 0.3162 -3.2661 22.0714)" class="st5" cx="13.7" cy="13.3" rx="7" ry="7"/>
		<path class="st5" d="M10.9,14.4c0-0.4,0-0.7,0-1.1c0-3.9,1.3-7,2.8-7c1,0,1.9,1.4,2.4,3.4"/>
		<path class="st5" d="M16.4,12.2c0,0.4,0,0.7,0,1.1c0,3.9-1.3,7-2.8,7c-1,0-1.9-1.4-2.4-3.5"/>
	</g>
	<path class="st5" d="M17.6,10.9c0,0.7-0.6,1.2-1.2,1.2c-0.7,0-1.2-0.6-1.2-1.2c0-0.7,0.6-1.2,1.2-1.2C17,9.7,17.6,10.3,17.6,10.9z"
		/>
	<path class="st5" d="M12.2,15.6c0,0.7-0.6,1.2-1.2,1.2c-0.7,0-1.2-0.6-1.2-1.2c0-0.7,0.6-1.2,1.2-1.2C11.7,14.4,12.2,15,12.2,15.6z
		"/>
</g>
</svg>
